<svg xmlns="http://www.w3.org/2000/svg" width="12.199" height="9.585" viewBox="0 0 12.199 9.585"><g transform="translate(0 -59.013)"><g transform="translate(0 59.013)"><path d="M27.681,327.252a1.043,1.043,0,0,0,.714-.269l-3.456-3.456-.239.172q-.388.286-.63.446a3.879,3.879,0,0,1-.643.327,1.961,1.961,0,0,1-.749.167h-.014a1.96,1.96,0,0,1-.749-.167,3.867,3.867,0,0,1-.643-.327q-.242-.16-.63-.446l-.239-.173-3.457,3.457a1.043,1.043,0,0,0,.714.269Z" transform="translate(-16.571 -317.666)" fill="#0cc219"/><path d="M.688,199.147A3.609,3.609,0,0,1,0,198.555v5.259l3.046-3.046Q2.132,200.129.688,199.147Z" transform="translate(0 -195.464)" fill="#0cc219"/><path d="M415.673,199.147q-1.391.941-2.364,1.621l3.045,3.045v-5.259A3.757,3.757,0,0,1,415.673,199.147Z" transform="translate(-404.155 -195.464)" fill="#0cc219"/><path d="M11.116,59.013H1.1a.972.972,0,0,0-.807.354,1.374,1.374,0,0,0-.283.885,1.591,1.591,0,0,0,.374.929,3.377,3.377,0,0,0,.8.786q.231.163,1.4.97l1.1.762.687.481.1.072.188.135q.221.16.368.259t.354.221a2.065,2.065,0,0,0,.391.184,1.083,1.083,0,0,0,.34.061h.014a1.084,1.084,0,0,0,.34-.061,2.061,2.061,0,0,0,.391-.184q.208-.123.354-.221t.368-.259l.188-.135.1-.073.689-.479,2.5-1.734a3.238,3.238,0,0,0,.83-.837,1.8,1.8,0,0,0,.333-1.028,1.1,1.1,0,0,0-1.089-1.089Z" transform="translate(-0.006 -59.013)" fill="#0cc219"/></g></g></svg>