<svg xmlns="http://www.w3.org/2000/svg" width="13.181" height="13.181" viewBox="0 0 13.181 13.181"><g transform="translate(-0.006)"><g transform="translate(0.006)"><path d="M10.026,53.591a.924.924,0,0,0-1.4,0c-.326.324-.653.647-.974.976a.192.192,0,0,1-.269.049c-.211-.115-.436-.208-.639-.335a10.125,10.125,0,0,1-2.441-2.222,5.783,5.783,0,0,1-.875-1.4.2.2,0,0,1,.049-.258c.326-.315.645-.639.965-.963a.927.927,0,0,0,0-1.429c-.255-.258-.51-.51-.765-.768s-.524-.529-.79-.79a.929.929,0,0,0-1.4,0c-.329.324-.645.656-.979.974a1.589,1.589,0,0,0-.5,1.072,4.544,4.544,0,0,0,.351,1.956A11.883,11.883,0,0,0,2.476,53.97,13.052,13.052,0,0,0,6.8,57.352a6.252,6.252,0,0,0,2.394.7,1.755,1.755,0,0,0,1.506-.573c.28-.313.6-.6.891-.9a.933.933,0,0,0,.005-1.421Q10.814,54.372,10.026,53.591Z" transform="translate(-0.006 -44.872)" fill="#0cc219"/><path d="M240.827,99.9l1.012-.173A4.543,4.543,0,0,0,238,96l-.143,1.018a3.511,3.511,0,0,1,2.973,2.883Z" transform="translate(-231.33 -93.367)" fill="#0cc219"/><path d="M247.175,2.134A7.463,7.463,0,0,0,242.9,0l-.143,1.018a6.512,6.512,0,0,1,5.51,5.34l1.012-.173A7.517,7.517,0,0,0,247.175,2.134Z" transform="translate(-236.096)" fill="#0cc219"/></g></g></svg>